<?xml version="1.0" ?><!DOCTYPE svg  PUBLIC '-//W3C//DTD SVG 1.1//EN'  'http://www.w3.org/Graphics/SVG/1.1/DTD/svg11.dtd'><svg height="100%" style="fill-rule:evenodd;clip-rule:evenodd;stroke-linejoin:round;stroke-miterlimit:1.41421;" version="1.1" viewBox="0 0 900 575" width="100%" xml:space="preserve" xmlns="http://www.w3.org/2000/svg" xmlns:xlink="http://www.w3.org/1999/xlink"><g transform="matrix(4.16667,0,0,4.16667,0,0)"><rect height="137.208" style="fill:white;fill-rule:nonzero;" width="215.998" x="0" y="0.792"/><rect height="18.722" style="fill:rgb(252,179,21);fill-rule:nonzero;" width="208.799" x="3.596" y="115.704"/><rect height="18.719" style="fill:rgb(13,53,127);fill-rule:nonzero;" width="208.799" x="3.596" y="4.392"/><path d="M103.846,40.013L93.381,88.93L80.726,88.93L91.19,40.013L103.846,40.013ZM157.086,71.599L163.75,53.229L167.578,71.599L157.086,71.599ZM171.213,88.93L182.914,88.93L172.691,40.013L161.896,40.013C159.46,40.013 157.414,41.426 156.506,43.6L137.517,88.93L150.807,88.93L153.442,81.624L169.68,81.624L171.213,88.93ZM138.176,72.959C138.229,60.051 120.328,59.335 120.445,53.567C120.488,51.814 122.158,49.947 125.814,49.47C127.625,49.236 132.628,49.049 138.295,51.66L140.512,41.281C137.467,40.18 133.549,39.121 128.675,39.121C116.164,39.121 107.363,45.765 107.293,55.288C107.211,62.332 113.579,66.258 118.368,68.604C123.301,71 124.955,72.54 124.933,74.681C124.897,77.963 120.993,79.416 117.363,79.47C110.998,79.571 107.308,77.75 104.365,76.379L102.068,87.102C105.029,88.459 110.486,89.638 116.139,89.698C129.438,89.698 138.137,83.129 138.176,72.959ZM85.761,40.013L65.257,88.93L51.878,88.93L41.788,49.89C41.176,47.491 40.645,46.608 38.783,45.594C35.74,43.941 30.715,42.395 26.297,41.433L26.596,40.013L48.133,40.013C50.874,40.013 53.342,41.838 53.968,44.998L59.3,73.307L72.464,40.013L85.761,40.013Z" style="fill:rgb(13,53,127);fill-rule:nonzero;"/><path d="M120.043,102.395L114.901,102.395L114.901,107.181L120.653,107.181L120.653,108.619L113.168,108.619L113.168,95.342L120.358,95.342L120.358,96.781L114.901,96.781L114.901,100.976L120.043,100.976L120.043,102.395Z" style="fill:rgb(13,53,127);fill-rule:nonzero;"/><rect height="13.986" style="fill:rgb(13,53,127);fill-rule:nonzero;" width="1.733" x="123.31" y="94.633"/><path d="M134.496,102.926C134.516,101.843 134.043,100.129 132.093,100.129C130.32,100.129 129.571,101.725 129.434,102.926L134.496,102.926ZM129.414,104.167C129.453,106.512 130.931,107.477 132.684,107.477C133.925,107.477 134.693,107.26 135.324,106.984L135.639,108.226C135.028,108.501 133.965,108.836 132.447,108.836C129.513,108.836 127.76,106.886 127.76,104.01C127.76,101.134 129.453,98.888 132.231,98.888C135.363,98.888 136.171,101.606 136.171,103.359C136.171,103.714 136.151,103.97 136.111,104.167L129.414,104.167Z" style="fill:rgb(13,53,127);fill-rule:nonzero;"/><path d="M145.603,108.284C145.149,108.501 144.145,108.836 142.864,108.836C139.988,108.836 138.117,106.886 138.117,103.97C138.117,101.035 140.126,98.888 143.238,98.888C144.263,98.888 145.169,99.144 145.642,99.401L145.248,100.72C144.834,100.503 144.184,100.267 143.238,100.267C141.052,100.267 139.87,101.901 139.87,103.872C139.87,106.078 141.288,107.438 143.18,107.438C144.164,107.438 144.814,107.201 145.307,106.984L145.603,108.284Z" style="fill:rgb(13,53,127);fill-rule:nonzero;"/><path d="M150.465,96.8L150.465,99.085L152.946,99.085L152.946,100.405L150.465,100.405L150.465,105.546C150.465,106.729 150.8,107.397 151.765,107.397C152.237,107.397 152.514,107.358 152.77,107.279L152.849,108.6C152.514,108.718 151.981,108.836 151.312,108.836C150.504,108.836 149.854,108.56 149.44,108.107C148.968,107.575 148.771,106.729 148.771,105.605L148.771,100.405L147.293,100.405L147.293,99.085L148.771,99.085L148.771,97.312L150.465,96.8Z" style="fill:rgb(13,53,127);fill-rule:nonzero;"/><path d="M155.367,102.06C155.367,100.937 155.347,99.972 155.288,99.085L156.805,99.085L156.884,100.976L156.942,100.976C157.376,99.696 158.439,98.888 159.602,98.888C159.779,98.888 159.917,98.908 160.075,98.927L160.075,100.563C159.897,100.523 159.721,100.523 159.483,100.523C158.263,100.523 157.396,101.429 157.159,102.73C157.12,102.966 157.101,103.261 157.101,103.537L157.101,108.619L155.367,108.619L155.367,102.06Z" style="fill:rgb(13,53,127);fill-rule:nonzero;"/><path d="M163.185,103.872C163.185,105.96 164.366,107.536 166.061,107.536C167.716,107.536 168.956,105.98 168.956,103.832C168.956,102.217 168.148,100.188 166.1,100.188C164.071,100.188 163.185,102.079 163.185,103.872ZM170.729,103.773C170.729,107.299 168.267,108.836 165.981,108.836C163.421,108.836 161.412,106.944 161.412,103.931C161.412,100.759 163.52,98.888 166.14,98.888C168.878,98.888 170.729,100.877 170.729,103.773Z" style="fill:rgb(13,53,127);fill-rule:nonzero;"/><path d="M173.386,101.665C173.386,100.662 173.365,99.874 173.307,99.085L174.843,99.085L174.941,100.662L174.98,100.662C175.454,99.775 176.557,98.888 178.133,98.888C179.452,98.888 181.501,99.676 181.501,102.945L181.501,108.619L179.768,108.619L179.768,103.123C179.768,101.587 179.196,100.306 177.562,100.306C176.438,100.306 175.552,101.114 175.237,102.079C175.158,102.296 175.119,102.591 175.119,102.887L175.119,108.619L173.386,108.619L173.386,101.665Z" style="fill:rgb(13,53,127);fill-rule:nonzero;"/></g></svg>